<mxfile host="Electron" modified="2024-02-05T23:30:44.799Z" agent="Mozilla/5.0 (Macintosh; Intel Mac OS X 10_15_7) AppleWebKit/537.36 (KHTML, like Gecko) draw.io/23.0.2 Chrome/120.0.6099.109 Electron/28.1.0 Safari/537.36" etag="A31Ungmi6AGBAkyev5hI" version="23.0.2" type="device">
  <diagram name="Page-1" id="cWTKhKW8xR2mcrcdvLpz">
    <mxGraphModel dx="507" dy="549" grid="1" gridSize="10" guides="1" tooltips="1" connect="1" arrows="1" fold="1" page="1" pageScale="1" pageWidth="827" pageHeight="1169" math="0" shadow="0">
      <root>
        <mxCell id="0" />
        <mxCell id="1" parent="0" />
        <mxCell id="I_P2_qD0Jl0lsfXRpeoM-4" style="edgeStyle=orthogonalEdgeStyle;rounded=0;orthogonalLoop=1;jettySize=auto;html=1;entryX=0;entryY=0;entryDx=0;entryDy=0;fillColor=#dae8fc;strokeColor=#6c8ebf;" edge="1" parent="1" source="I_P2_qD0Jl0lsfXRpeoM-1" target="I_P2_qD0Jl0lsfXRpeoM-8">
          <mxGeometry relative="1" as="geometry">
            <mxPoint x="362.5" y="210" as="targetPoint" />
          </mxGeometry>
        </mxCell>
        <mxCell id="I_P2_qD0Jl0lsfXRpeoM-1" value="Host: first.istiodemo.io&amp;nbsp;&lt;b&gt;localhost:80/order&lt;/b&gt;" style="text;html=1;strokeColor=none;fillColor=none;align=center;verticalAlign=middle;whiteSpace=wrap;rounded=0;" vertex="1" parent="1">
          <mxGeometry x="10" y="129" width="230" height="30" as="geometry" />
        </mxCell>
        <mxCell id="I_P2_qD0Jl0lsfXRpeoM-5" style="edgeStyle=orthogonalEdgeStyle;rounded=0;orthogonalLoop=1;jettySize=auto;html=1;entryX=0;entryY=0.75;entryDx=0;entryDy=0;fillColor=#ffe6cc;strokeColor=#d79b00;" edge="1" parent="1" source="I_P2_qD0Jl0lsfXRpeoM-2" target="I_P2_qD0Jl0lsfXRpeoM-8">
          <mxGeometry relative="1" as="geometry">
            <mxPoint x="362.5" y="270" as="targetPoint" />
            <Array as="points">
              <mxPoint x="270" y="285" />
              <mxPoint x="270" y="266" />
            </Array>
          </mxGeometry>
        </mxCell>
        <mxCell id="I_P2_qD0Jl0lsfXRpeoM-2" value="Host: second.istiodemo.io &lt;b&gt;localhost:80/order&lt;/b&gt;" style="text;html=1;strokeColor=none;fillColor=none;align=center;verticalAlign=middle;whiteSpace=wrap;rounded=0;" vertex="1" parent="1">
          <mxGeometry x="10" y="270" width="250" height="30" as="geometry" />
        </mxCell>
        <mxCell id="I_P2_qD0Jl0lsfXRpeoM-24" style="edgeStyle=orthogonalEdgeStyle;rounded=0;orthogonalLoop=1;jettySize=auto;html=1;entryX=0;entryY=0.25;entryDx=0;entryDy=0;fillColor=#dae8fc;strokeColor=#6c8ebf;exitX=1;exitY=0.25;exitDx=0;exitDy=0;" edge="1" parent="1" source="I_P2_qD0Jl0lsfXRpeoM-8" target="I_P2_qD0Jl0lsfXRpeoM-9">
          <mxGeometry relative="1" as="geometry" />
        </mxCell>
        <mxCell id="I_P2_qD0Jl0lsfXRpeoM-28" style="edgeStyle=orthogonalEdgeStyle;rounded=0;orthogonalLoop=1;jettySize=auto;html=1;entryX=0;entryY=0.75;entryDx=0;entryDy=0;fillColor=#d5e8d4;strokeColor=#82b366;" edge="1" parent="1" source="I_P2_qD0Jl0lsfXRpeoM-8" target="I_P2_qD0Jl0lsfXRpeoM-9">
          <mxGeometry relative="1" as="geometry">
            <Array as="points">
              <mxPoint x="500" y="246" />
              <mxPoint x="500" y="194" />
            </Array>
          </mxGeometry>
        </mxCell>
        <mxCell id="I_P2_qD0Jl0lsfXRpeoM-32" style="edgeStyle=orthogonalEdgeStyle;rounded=0;orthogonalLoop=1;jettySize=auto;html=1;entryX=0;entryY=0.25;entryDx=0;entryDy=0;fillColor=#ffe6cc;strokeColor=#d79b00;" edge="1" parent="1" source="I_P2_qD0Jl0lsfXRpeoM-8" target="I_P2_qD0Jl0lsfXRpeoM-10">
          <mxGeometry relative="1" as="geometry">
            <Array as="points">
              <mxPoint x="490" y="260" />
              <mxPoint x="490" y="299" />
            </Array>
          </mxGeometry>
        </mxCell>
        <mxCell id="I_P2_qD0Jl0lsfXRpeoM-35" style="edgeStyle=orthogonalEdgeStyle;rounded=0;orthogonalLoop=1;jettySize=auto;html=1;entryX=0;entryY=0.75;entryDx=0;entryDy=0;exitX=0.986;exitY=0.954;exitDx=0;exitDy=0;exitPerimeter=0;fillColor=#e1d5e7;strokeColor=#9673a6;" edge="1" parent="1" source="I_P2_qD0Jl0lsfXRpeoM-8" target="I_P2_qD0Jl0lsfXRpeoM-10">
          <mxGeometry relative="1" as="geometry">
            <Array as="points">
              <mxPoint x="480" y="282" />
              <mxPoint x="480" y="324" />
            </Array>
          </mxGeometry>
        </mxCell>
        <mxCell id="I_P2_qD0Jl0lsfXRpeoM-8" value="&quot;gw/shared-gateway&quot;" style="rounded=1;whiteSpace=wrap;html=1;" vertex="1" parent="1">
          <mxGeometry x="340" y="206" width="120" height="80" as="geometry" />
        </mxCell>
        <mxCell id="I_P2_qD0Jl0lsfXRpeoM-25" style="edgeStyle=orthogonalEdgeStyle;rounded=0;orthogonalLoop=1;jettySize=auto;html=1;entryX=0;entryY=0.25;entryDx=0;entryDy=0;exitX=1;exitY=0.25;exitDx=0;exitDy=0;fillColor=#dae8fc;strokeColor=#6c8ebf;" edge="1" parent="1" source="I_P2_qD0Jl0lsfXRpeoM-9" target="I_P2_qD0Jl0lsfXRpeoM-14">
          <mxGeometry relative="1" as="geometry" />
        </mxCell>
        <mxCell id="I_P2_qD0Jl0lsfXRpeoM-29" style="rounded=0;orthogonalLoop=1;jettySize=auto;html=1;entryX=0;entryY=0.25;entryDx=0;entryDy=0;fillColor=#d5e8d4;strokeColor=#82b366;exitX=1;exitY=0.5;exitDx=0;exitDy=0;" edge="1" parent="1" source="I_P2_qD0Jl0lsfXRpeoM-9" target="I_P2_qD0Jl0lsfXRpeoM-15">
          <mxGeometry relative="1" as="geometry" />
        </mxCell>
        <mxCell id="I_P2_qD0Jl0lsfXRpeoM-9" value="&quot;vs/first-vs&quot;" style="rounded=1;whiteSpace=wrap;html=1;" vertex="1" parent="1">
          <mxGeometry x="520" y="156" width="120" height="50" as="geometry" />
        </mxCell>
        <mxCell id="I_P2_qD0Jl0lsfXRpeoM-33" style="rounded=0;orthogonalLoop=1;jettySize=auto;html=1;entryX=0;entryY=0.75;entryDx=0;entryDy=0;fillColor=#ffe6cc;strokeColor=#d79b00;exitX=1;exitY=0.25;exitDx=0;exitDy=0;" edge="1" parent="1" source="I_P2_qD0Jl0lsfXRpeoM-10" target="I_P2_qD0Jl0lsfXRpeoM-14">
          <mxGeometry relative="1" as="geometry" />
        </mxCell>
        <mxCell id="I_P2_qD0Jl0lsfXRpeoM-36" style="edgeStyle=orthogonalEdgeStyle;rounded=0;orthogonalLoop=1;jettySize=auto;html=1;entryX=0;entryY=0.75;entryDx=0;entryDy=0;exitX=1;exitY=0.75;exitDx=0;exitDy=0;fillColor=#e1d5e7;strokeColor=#9673a6;" edge="1" parent="1" source="I_P2_qD0Jl0lsfXRpeoM-10" target="I_P2_qD0Jl0lsfXRpeoM-15">
          <mxGeometry relative="1" as="geometry" />
        </mxCell>
        <mxCell id="I_P2_qD0Jl0lsfXRpeoM-10" value="&quot;vs/second-vs&quot;" style="rounded=1;whiteSpace=wrap;html=1;" vertex="1" parent="1">
          <mxGeometry x="520" y="286" width="120" height="50" as="geometry" />
        </mxCell>
        <mxCell id="I_P2_qD0Jl0lsfXRpeoM-11" value="deploy/order-microservice-deploy" style="shape=process;whiteSpace=wrap;html=1;backgroundOutline=1;" vertex="1" parent="1">
          <mxGeometry x="890" y="155" width="120" height="51" as="geometry" />
        </mxCell>
        <mxCell id="I_P2_qD0Jl0lsfXRpeoM-13" value="deploy/user-microservice-deploy" style="shape=process;whiteSpace=wrap;html=1;backgroundOutline=1;" vertex="1" parent="1">
          <mxGeometry x="890" y="285" width="120" height="50" as="geometry" />
        </mxCell>
        <mxCell id="I_P2_qD0Jl0lsfXRpeoM-16" style="edgeStyle=orthogonalEdgeStyle;rounded=0;orthogonalLoop=1;jettySize=auto;html=1;entryX=0;entryY=0.25;entryDx=0;entryDy=0;exitX=1;exitY=0.25;exitDx=0;exitDy=0;fillColor=#dae8fc;strokeColor=#6c8ebf;" edge="1" parent="1" source="I_P2_qD0Jl0lsfXRpeoM-14" target="I_P2_qD0Jl0lsfXRpeoM-11">
          <mxGeometry relative="1" as="geometry" />
        </mxCell>
        <mxCell id="I_P2_qD0Jl0lsfXRpeoM-34" style="edgeStyle=orthogonalEdgeStyle;rounded=0;orthogonalLoop=1;jettySize=auto;html=1;entryX=0;entryY=0.75;entryDx=0;entryDy=0;exitX=1;exitY=0.75;exitDx=0;exitDy=0;fillColor=#ffe6cc;strokeColor=#d79b00;" edge="1" parent="1" source="I_P2_qD0Jl0lsfXRpeoM-14" target="I_P2_qD0Jl0lsfXRpeoM-11">
          <mxGeometry relative="1" as="geometry" />
        </mxCell>
        <mxCell id="I_P2_qD0Jl0lsfXRpeoM-14" value="svc/order-microservice-svc" style="shape=process;whiteSpace=wrap;html=1;backgroundOutline=1;" vertex="1" parent="1">
          <mxGeometry x="707" y="155" width="120" height="51" as="geometry" />
        </mxCell>
        <mxCell id="I_P2_qD0Jl0lsfXRpeoM-17" style="edgeStyle=orthogonalEdgeStyle;rounded=0;orthogonalLoop=1;jettySize=auto;html=1;entryX=0;entryY=0.25;entryDx=0;entryDy=0;fillColor=#d5e8d4;strokeColor=#82b366;exitX=1;exitY=0.25;exitDx=0;exitDy=0;" edge="1" parent="1" source="I_P2_qD0Jl0lsfXRpeoM-15" target="I_P2_qD0Jl0lsfXRpeoM-13">
          <mxGeometry relative="1" as="geometry" />
        </mxCell>
        <mxCell id="I_P2_qD0Jl0lsfXRpeoM-37" style="edgeStyle=orthogonalEdgeStyle;rounded=0;orthogonalLoop=1;jettySize=auto;html=1;entryX=0;entryY=0.75;entryDx=0;entryDy=0;exitX=1;exitY=0.75;exitDx=0;exitDy=0;fillColor=#e1d5e7;strokeColor=#9673a6;" edge="1" parent="1" source="I_P2_qD0Jl0lsfXRpeoM-15" target="I_P2_qD0Jl0lsfXRpeoM-13">
          <mxGeometry relative="1" as="geometry" />
        </mxCell>
        <mxCell id="I_P2_qD0Jl0lsfXRpeoM-15" value="svc/user-microservice-svc" style="shape=process;whiteSpace=wrap;html=1;backgroundOutline=1;" vertex="1" parent="1">
          <mxGeometry x="710" y="285" width="120" height="51" as="geometry" />
        </mxCell>
        <mxCell id="I_P2_qD0Jl0lsfXRpeoM-18" value="in:8000" style="text;html=1;strokeColor=none;fillColor=none;align=center;verticalAlign=middle;whiteSpace=wrap;rounded=0;" vertex="1" parent="1">
          <mxGeometry x="707" y="256" width="60" height="30" as="geometry" />
        </mxCell>
        <mxCell id="I_P2_qD0Jl0lsfXRpeoM-19" value="in:9000" style="text;html=1;strokeColor=none;fillColor=none;align=center;verticalAlign=middle;whiteSpace=wrap;rounded=0;" vertex="1" parent="1">
          <mxGeometry x="700" y="129" width="60" height="30" as="geometry" />
        </mxCell>
        <mxCell id="I_P2_qD0Jl0lsfXRpeoM-22" style="edgeStyle=orthogonalEdgeStyle;rounded=0;orthogonalLoop=1;jettySize=auto;html=1;entryX=0;entryY=0.25;entryDx=0;entryDy=0;fillColor=#d5e8d4;strokeColor=#82b366;" edge="1" parent="1" source="I_P2_qD0Jl0lsfXRpeoM-20" target="I_P2_qD0Jl0lsfXRpeoM-8">
          <mxGeometry relative="1" as="geometry">
            <Array as="points">
              <mxPoint x="270" y="205" />
              <mxPoint x="270" y="226" />
            </Array>
          </mxGeometry>
        </mxCell>
        <mxCell id="I_P2_qD0Jl0lsfXRpeoM-20" value="Host: first.istiodemo.io&amp;nbsp;&lt;b&gt;localhost:80/user&lt;/b&gt;" style="text;html=1;strokeColor=none;fillColor=none;align=center;verticalAlign=middle;whiteSpace=wrap;rounded=0;" vertex="1" parent="1">
          <mxGeometry y="190" width="250" height="30" as="geometry" />
        </mxCell>
        <mxCell id="I_P2_qD0Jl0lsfXRpeoM-23" style="edgeStyle=orthogonalEdgeStyle;rounded=0;orthogonalLoop=1;jettySize=auto;html=1;entryX=0;entryY=1;entryDx=0;entryDy=0;fillColor=#e1d5e7;strokeColor=#9673a6;" edge="1" parent="1" source="I_P2_qD0Jl0lsfXRpeoM-21" target="I_P2_qD0Jl0lsfXRpeoM-8">
          <mxGeometry relative="1" as="geometry" />
        </mxCell>
        <mxCell id="I_P2_qD0Jl0lsfXRpeoM-21" value="Host: second.istiodemo.io &lt;b&gt;localhost:80/user&lt;/b&gt;" style="text;html=1;strokeColor=none;fillColor=none;align=center;verticalAlign=middle;whiteSpace=wrap;rounded=0;" vertex="1" parent="1">
          <mxGeometry x="10" y="320" width="250" height="30" as="geometry" />
        </mxCell>
        <mxCell id="I_P2_qD0Jl0lsfXRpeoM-26" value="in:8080" style="text;html=1;strokeColor=none;fillColor=none;align=center;verticalAlign=middle;whiteSpace=wrap;rounded=0;" vertex="1" parent="1">
          <mxGeometry x="880" y="125" width="60" height="30" as="geometry" />
        </mxCell>
        <mxCell id="I_P2_qD0Jl0lsfXRpeoM-27" value="in:8080" style="text;html=1;strokeColor=none;fillColor=none;align=center;verticalAlign=middle;whiteSpace=wrap;rounded=0;" vertex="1" parent="1">
          <mxGeometry x="890" y="256" width="60" height="30" as="geometry" />
        </mxCell>
        <mxCell id="I_P2_qD0Jl0lsfXRpeoM-30" value="" style="endArrow=classic;html=1;rounded=0;" edge="1" parent="1">
          <mxGeometry width="50" height="50" relative="1" as="geometry">
            <mxPoint x="490" y="410" as="sourcePoint" />
            <mxPoint x="490" y="360" as="targetPoint" />
          </mxGeometry>
        </mxCell>
        <mxCell id="I_P2_qD0Jl0lsfXRpeoM-31" value="filter by hostname" style="text;html=1;strokeColor=none;fillColor=none;align=center;verticalAlign=middle;whiteSpace=wrap;rounded=0;" vertex="1" parent="1">
          <mxGeometry x="460" y="420" width="60" height="30" as="geometry" />
        </mxCell>
        <mxCell id="I_P2_qD0Jl0lsfXRpeoM-38" value="" style="endArrow=classic;html=1;rounded=0;" edge="1" parent="1">
          <mxGeometry width="50" height="50" relative="1" as="geometry">
            <mxPoint x="670" y="410" as="sourcePoint" />
            <mxPoint x="670" y="360" as="targetPoint" />
          </mxGeometry>
        </mxCell>
        <mxCell id="I_P2_qD0Jl0lsfXRpeoM-39" value="filter by path (&quot;uri&quot;)" style="text;html=1;strokeColor=none;fillColor=none;align=center;verticalAlign=middle;whiteSpace=wrap;rounded=0;" vertex="1" parent="1">
          <mxGeometry x="640" y="420" width="60" height="30" as="geometry" />
        </mxCell>
      </root>
    </mxGraphModel>
  </diagram>
</mxfile>
